<svg xmlns="http://www.w3.org/2000/svg" class="gauge" height="160" width="160" viewBox="0 0 160 160">
  <defs>
    <line id="tick" x1="150" y1="80" x2="145" y2="80" stroke="#FF8598" stroke-width="2"/>
  </defs>
  
  <g transform="rotate(-90 80 80)">
    <circle cx="80" cy="80" r="75" fill="none" stroke="#FFC0A9" stroke-width="5"/>
    
    <g class="ticks">
      <use href="#tick" transform="rotate(0 80 80)"/>
      <use href="#tick" transform="rotate(10 80 80)"/>
      <use href="#tick" transform="rotate(20 80 80)"/>
      <use href="#tick" transform="rotate(30 80 80)"/>
      <use href="#tick" transform="rotate(40 80 80)"/>
      <use href="#tick" transform="rotate(50 80 80)"/>
      <use href="#tick" transform="rotate(60 80 80)"/>
      <use href="#tick" transform="rotate(70 80 80)"/>
      <use href="#tick" transform="rotate(80 80 80)"/>
      <use href="#tick" transform="rotate(90 80 80)"/>
      <use href="#tick" transform="rotate(100 80 80)"/>
      <use href="#tick" transform="rotate(110 80 80)"/>
      <use href="#tick" transform="rotate(120 80 80)"/>
      <use href="#tick" transform="rotate(130 80 80)"/>
      <use href="#tick" transform="rotate(140 80 80)"/>
      <use href="#tick" transform="rotate(150 80 80)"/>
      <use href="#tick" transform="rotate(160 80 80)"/>
      <use href="#tick" transform="rotate(170 80 80)"/>
      <use href="#tick" transform="rotate(180 80 80)"/>
      <use href="#tick" transform="rotate(190 80 80)"/>
      <use href="#tick" transform="rotate(200 80 80)"/>
      <use href="#tick" transform="rotate(210 80 80)"/>
      <use href="#tick" transform="rotate(220 80 80)"/>
      <use href="#tick" transform="rotate(230 80 80)"/>
      <use href="#tick" transform="rotate(240 80 80)"/>
      <use href="#tick" transform="rotate(250 80 80)"/>
      <use href="#tick" transform="rotate(260 80 80)"/>
      <use href="#tick" transform="rotate(270 80 80)"/>
      <use href="#tick" transform="rotate(280 80 80)"/>
      <use href="#tick" transform="rotate(290 80 80)"/>
      <use href="#tick" transform="rotate(300 80 80)"/>
      <use href="#tick" transform="rotate(310 80 80)"/>
      <use href="#tick" transform="rotate(320 80 80)"/>
      <use href="#tick" transform="rotate(330 80 80)"/>
      <use href="#tick" transform="rotate(340 80 80)"/>
      <use href="#tick" transform="rotate(350 80 80)"/>
      <use href="#tick" transform="rotate(360 80 80)"/>
    </g>
  
    <circle cx="80" cy="80" r="75" fill="none" stroke="#FF8598" stroke-width="10" stroke-dasharray="471.23889803846896" stroke-dashoffset="353.4291735288517" stroke-linecap="round"/>
  
    <g class="needle">
      <g transform="rotate(90 80 80)">
        <polygon points="80 75 80 85 150 80" fill="#C9D787"/>
      </g>
      <circle cx="80" cy="80" r="10" fill="#7D8A2E"/>
    </g>
  
    <text x="80" y="135" font-family="Sans-serif" font-size="25" transform="rotate(90 80 80)" text-anchor="middle" fill="#FF8598">
      25
    </text>
  </g>
</svg>

