<svg version="1.1" xmlns="http://www.w3.org/2000/svg">
	<defs>
		<symbol id="home" viewBox="0 0 32 32">
    		<path d="M32 19l-6-6v-9h-4v5l-6-6-16 16v1h4v10h10v-6h4v6h10v-10h4z"></path>
    	</symbol>
    	
    	<symbol id="camera" viewBox="0 0 32 32">
    	  	<path
	    	    d="M9.5 19c0 3.59 2.91 6.5 6.5 6.5s6.5-2.91 6.5-6.5-2.91-6.5-6.5-6.5-6.5 2.91-6.5 6.5zM30 8h-7c-0.5-2-1-4-3-4h-8c-2 0-2.5 2-3 4h-7c-1.1 0-2 0.9-2 2v18c0 1.1 0.9 2 2 2h28c1.1 0 2-0.9 2-2v-18c0-1.1-0.9-2-2-2zM16 27.875c-4.902 0-8.875-3.973-8.875-8.875s3.973-8.875 8.875-8.875c4.902 0 8.875 3.973 8.875 8.875s-3.973 8.875-8.875 8.875zM30 14h-4v-2h4v2z"></path>
		</symbol>
		
		<symbol id="headphones" viewBox="0 0 32 32">
      		<path d="M9 18h-2v14h2c0.55 0 1-0.45 1-1v-12c0-0.55-0.45-1-1-1z"></path>
      		<path d="M23 18c-0.55 0-1 0.45-1 1v12c0 0.55 0.45 1 1 1h2v-14h-2z"></path>
      		<path
        		d="M32 16c0-8.837-7.163-16-16-16s-16 7.163-16 16c0 1.919 0.338 3.759 0.958 5.464-0.609 1.038-0.958 2.246-0.958 3.536 0 3.526 2.608 6.443 6 6.929v-13.857c-0.997 0.143-1.927 0.495-2.742 1.012-0.168-0.835-0.258-1.699-0.258-2.584 0-7.18 5.82-13 13-13s13 5.82 13 13c0 0.885-0.088 1.749-0.257 2.584-0.816-0.517-1.745-0.87-2.743-1.013v13.858c3.392-0.485 6-3.402 6-6.929 0-1.29-0.349-2.498-0.958-3.536 0.62-1.705 0.958-3.545 0.958-5.465z"></path>
    	</symbol>
		
		<symbol>    	
			<path
                display=""
                fill="lightgreen"
                d="
                    M 2.56635 12.9241C 0.708307 9.55549 0 6.83983 0 5.00558
                    C 0 3.17134 0.450658 2.64526 0.907953 2.22025
                    C 1.36525 1.79524 3.42732 0.523908 3.77867 0.286808
                    C 4.13002 0.0497085 5.47099 -0.41107 6.31193 0.798636
                    C 7.15287 2.00834 8.73646 4.43718 9.82825 6.05069
                    C 11.5415 8.33611 10.1766 9.33937 9.73572 9.94069
                    C 8.92447 11.0472 8.45734 11.3201 8.45734 12.6788
                    C 8.45734 14.0375 12.2545 17.8976 13.1625 18.8487
                    C 14.0635 19.7926 17.8471 23.1094 19.0195 23.2868
                    C 20.2002 23.4654 21.7807 22.2154 22.1168 21.8985
                    C 23.8263 20.586 24.7912 21.581 25.5787 22.0136
                    C 26.3661 22.4461 29.9239 24.663 31.0264 25.4103
                    C 32.0641 26.1576 31.9992 27.3125 31.9992 27.3125
                    C 31.9992 27.3125 29.859 30.7092 29.5996 31.1168
                    C 29.2753 31.5924 28.4971 32 26.746 32
                    C 24.995 32 23.1241 31.6802 18.6777 29.2349
                    C 15.0396 27.234 11.5714 24.1009 9.75551 22.2666
                    C 7.87475 20.4324 4.68876 16.772 2.56635 12.9241
                    Z"
            />
		</symbol>
		
		<symbol id="meter-needle" viewBox="0 0 32 32">
			<path 
				fill="#464646" 
				d="M13.886,84.243L2.83,83.875c0,0,3.648-70.77,3.956-74.981C7.104,4.562,7.832,0,8.528,0
					c0.695,0,1.752,4.268,2.053,8.894C10.883,13.521,13.886,84.243,13.886,84.243z"/>
					
				<path 
					fill="#464646" 
					d="M16.721,85.475c0,4.615-3.743,8.359-8.36,8.359S0,90.09,0,85.475c0-4.62,3.743-8.363,8.36-8.363
						S16.721,80.855,16.721,85.475z"/>
				
				<circle 
					fill="#EEEEEE" 
					cx="8.426" 
					cy="85.471" 
					r="2.691"/>
		</symbol>
    </defs>
</svg>