<?xml version="1.0"?>
<svg width="400" height="400" xmlns="http://www.w3.org/2000/svg" xmlns:svg="http://www.w3.org/2000/svg">
 <!-- Created with SVG-edit - https://github.com/SVG-Edit/svgedit-->
 <g class="layer">
  <title>NYT logo</title>
  <path d="m91.3648,62.96059c-3.73947,8.62491 -10.62473,15.2838 -20.49386,18.81187l0,-18.81187l11.81982,-9.27801l-11.82753,-9.14335l0,-12.94073c10.77123,-0.6531 18.25017,-7.5813 18.25017,-16.07155c0,-11.10264 -12.12052,-15.02795 -18.99807,-15.02795c-1.49579,0 -3.14578,0 -5.53596,0.52517l0,0.52517c0.89439,0 2.24368,-0.12793 2.69088,-0.12793c4.78807,0 8.38105,1.95929 8.38105,5.74994c0,2.87497 -2.69088,5.74994 -7.47895,5.74994c-11.81982,0 -25.73683,-8.36233 -40.84893,-8.36233c-13.4621,0 -22.74525,8.75284 -22.74525,17.64033c0,8.75284 5.83666,11.62781 11.96631,13.5871l0.15421,-0.52517c-1.94298,-1.05034 -3.28457,-2.87497 -3.28457,-5.74994c0,-3.91858 4.18667,-7.18406 9.42964,-7.18406c12.71421,0 33.21578,9.27801 45.92998,9.27801l1.19509,0l0,13.06866l-11.81982,9.00869l11.81982,9.27801l0,19.07445c-4.93456,1.56878 -10.02333,2.22187 -15.25859,2.22187c-19.74596,0 -32.31368,-10.45627 -32.31368,-27.82729c0,-4.18116 0.6014,-8.2344 1.94298,-12.15298l9.87684,-3.79065l0,38.41149l20.04666,-7.70923l0,-39.32717l-29.48401,11.49988c2.99158,-7.57457 9.12894,-13.06193 16.46139,-16.19948l-0.14649,-0.39724c-19.75367,3.79065 -38.90594,16.85931 -38.90594,36.4522c0,22.60252 21.84315,38.28356 47.27928,38.28356c26.93192,0 42.19051,-15.68104 42.34472,-38.53941l-0.44719,0z" fill="black" id="svg_1"/>
 </g>
</svg>