<svg version="1.1" xmlns="http://www.w3.org/2000/svg" xmlns:xlink="http://www.w3.org/1999/xlink">
	<defs>
		<linearGradient id="gradient" x1="0%" y1="0%" x2="100%" y2="0%">
			<stop offset="0%" style="stop-color: #F1EDE2" />
      		<stop offset="100%" style="stop-color: #fff" />
      	</linearGradient>
	</defs>
	<svg viewBox="0 0 315 385" preserveAspectRatio="xMidYMid meet">
		<!-- the chicken illustration -->
		<g id="chick">
			<g>
			
				<path fill-rule="evenodd" clip-rule="evenodd" d="M94.848,368.216c-0.866,0.281-2.392,0.669-3.83,1.269
					c-2.295,0.957-4.575,1.184-6.886,0.199c-2.258-0.963-2.686-4.527-0.805-6.199c1.396-1.242,2.744-2.537,4.054-3.754
					c-0.157-0.336-0.177-0.463-0.25-0.521c-0.713-0.557-1.95-1.019-2.053-1.664c-0.254-1.604-0.221-3.29,0.804-4.808
					c1.936-2.867,4.852-4.343,7.808-5.795c0.762-0.374,1.523-0.747,2.285-1.121c1.099-0.54,2.104-0.755,3.454-0.472
					c1.332,0.279,2.915-0.214,4.294-0.66c3.479-1.128,6.875-2.516,10.363-3.614c2.767-0.872,4.752-3.277,4.955-6.645
					c0.076-1.264-0.016-2.551-0.151-3.814c-0.631-5.911-1.345-11.814-1.921-17.73c-0.096-0.985,0.403-2.016,0.51-3.038
					c0.067-0.646,0.112-1.438-0.2-1.934c-0.258-0.409-1.096-0.739-1.604-0.656c-2.439,0.395-4.835,1.085-7.281,1.4
					c-3.616,0.466-7.266,0.852-10.846-0.358c-2.202-0.744-4.384-1.563-6.622-2.184c-2.119-0.586-4.297-0.954-6.449-1.42
					c-0.101-0.021-0.21-0.032-0.296-0.083c-3.087-1.809-6.127-3.706-9.271-5.409c-2.241-1.214-4.323-2.534-6.028-4.479
					c-0.67-0.765-1.85-1.057-2.656-1.732c-1.895-1.589-3.794-3.19-5.523-4.951c-1.806-1.84-3.529-3.787-5.06-5.857
					c-0.792-1.071-1.145-2.49-1.596-3.786c-1.434-4.121-3.242-8.014-6.073-11.41c-0.695-0.835-0.844-2.127-1.232-3.213
					c-0.856-2.392-1.68-4.796-2.586-7.169c-0.126-0.332-0.644-0.515-0.98-0.768c-0.142,0.067-0.283,0.134-0.424,0.201
					c0.059,0.736,0.103,1.475,0.18,2.209c0.127,1.21,0.296,2.417,0.411,3.628c0.211,2.219,1.439,3.937,2.671,5.68
					c0.323,0.457,0.488,1.159,0.433,1.72c-0.101,1.028-0.864,1.267-1.583,0.634c-2.96-2.6-5.879-5.247-8.751-7.943
					c-0.424-0.397-0.485-1.165-0.763-1.737c-1.401-2.886-2.463-5.828-2.687-9.104c-0.176-2.57-0.909-5.097-1.297-7.658
					c-0.206-1.352-0.183-2.736-0.314-4.101c-0.029-0.302-0.271-0.583-0.415-0.874c-0.268,0.19-0.708,0.333-0.777,0.581
					c-0.513,1.819-0.958,3.656-1.411,5.492c-0.27,1.091-0.513,2.19-0.768,3.286c-0.172,0.007-0.344,0.014-0.515,0.022
					c-0.445-1.083-1.056-2.129-1.307-3.255c-1.088-4.871-1.671-9.803-1.381-14.807c0.134-2.322,0.084-4.681,0.502-6.953
					c0.502-2.731,1.33-5.413,2.17-8.067c0.845-2.668,1.813-5.302,2.849-7.903c0.861-2.161,1.851-4.274,2.869-6.367
					c1.451-2.983,2.829-6.017,4.514-8.866c2.207-3.73,4.476-7.46,7.099-10.899c2.921-3.831,6.303-7.308,9.427-10.987
					c4.046-4.765,8.365-9.26,13.382-12.996c2.933-2.184,6.052-4.136,9.206-5.993c1.112-0.655,1.329-1.356,1.238-2.445
					c-0.336-4.016-0.923-8.037-0.892-12.053c0.026-3.315,0.583-6.67,1.287-9.924c0.77-3.559,1.845-7.067,3.042-10.509
					c0.723-2.078,1.958-3.974,2.912-5.976c0.376-0.791,0.469-1.741,0.937-2.459c1.711-2.635,3.659-5.123,5.271-7.814
					c2.748-4.585,6.414-8.272,10.574-11.539c2.009-1.577,3.834-3.449,6.01-4.736c3.928-2.325,7.93-4.524,12.401-5.805
					c3.662-1.049,7.192-2.559,10.762-3.916c0.31-0.118,0.739-0.747,0.657-0.916c-0.233-0.478-0.627-1.006-1.093-1.221
					c-4.517-2.087-9.166-3.538-14.244-2.635c-0.133,0.023-0.29-0.082-0.626-0.186c0.293-1.279,1.2-1.982,2.252-2.371
					c1.909-0.705,3.862-1.303,5.828-1.833c2.521-0.68,5.164-1.004,7.586-1.924c3.141-1.193,6.284-0.24,9.413-0.461
					c1.999-0.14,4.059,0.666,6.099,1.001c1.393,0.229,1.845-0.27,1.473-1.548c-1.123-3.852-3.416-7.075-5.351-10.524
					c-2.378-4.239-6.572-6.156-9.827-9.238c-0.336-0.319-0.736-0.604-0.967-0.989c-0.158-0.262-0.184-0.721-0.057-0.994
					c0.073-0.16,0.606-0.254,0.857-0.165c2.867,1.024,6.055,0.835,8.789,2.505c0.881,0.539,2.31,0.088,3.391,0.413
					c3.081,0.925,5.75,2.605,8.25,4.643c1.847,1.504,3.957,2.679,5.905,4.064c1.377,0.979,2.685,2.058,4.014,3.104
					c0.688,0.542,1.199,0.78,1.98-0.066c2.275-2.465,4.614-4.879,7.05-7.183c2.296-2.171,6.115-3.862,8.82-3.798
					c-0.673,0.574-1.399,1.097-2.007,1.733c-1.15,1.204-2.332,2.301-4.111,2.417c-0.131,0.008-0.348,0.061-0.373,0.14
					c-0.917,2.966-4.24,3.759-5.653,6.209c-1.447,2.51-4.264,4.28-4.567,7.93c-0.892-1.101-1.791-2.197-2.675-3.305
					c-0.724-0.909-1.441-1.824-2.14-2.752c-0.983-1.305-1.748-2.858-2.961-3.886c-2.041-1.729-4.355-3.133-6.568-4.655
					c-0.255-0.175-0.69-0.145-0.878-0.356c-2.415-2.708-5.937-1.731-9.158-3.094c1.699,2.384,3.103,4.373,4.527,6.347
					c2.611,3.618,4.886,7.433,6.039,11.766c0.283,1.063-0.187,2.372-0.5,3.515c-0.073,0.265-0.969,0.528-1.41,0.434
					c-3.244-0.688-6.439-1.663-9.708-2.159c-3.238-0.492-6.49-0.057-9.631,0.996c-1.111,0.373-2.266,0.616-3.376,0.992
					c-0.508,0.172-0.956,0.523-1.672,0.929c1.84,0.801,3.319,1.741,4.926,2.083c3.275,0.695,6.266,1.861,8.818,4.044
					c0.47,0.402,0.829,0.936,1.431,1.631c-0.792,0.244-1.371,0.59-1.935,0.567c-3.48-0.135-6.596,1.063-9.659,2.494
					c-0.096,0.045-0.182,0.119-0.281,0.151c-3.484,1.107-6.982,2.176-10.447,3.339c-1.031,0.346-2.021,0.88-2.948,1.459
					c-2.663,1.66-5.31,3.348-7.914,5.1c-1.915,1.289-3.636,2.906-5.648,4c-3.021,1.643-4.648,4.466-6.566,7.042
					c-1.445,1.943-2.55,4.138-3.993,6.084c-3.169,4.274-4.987,9.132-6.809,14.072c-1.41,3.823-1.946,7.716-2.274,11.661
					c-0.246,2.951-0.016,5.946,0.081,8.918c0.12,3.702,0.188,7.414,0.546,11.095c0.159,1.639-0.331,2.659-1.764,2.91
					c-4.322,0.757-7.761,3.29-11.171,5.676c-2.892,2.024-5.312,4.729-7.906,7.169c-1.268,1.191-2.488,2.436-3.675,3.708
					c-2.588,2.773-5.217,5.513-7.692,8.384c-5.084,5.897-9.034,12.522-12.32,19.566c-1.575,3.375-3.464,6.613-4.878,10.051
					c-0.872,2.118-1.104,4.498-1.642,6.755c-0.253,1.063-0.645,2.1-0.814,3.174c-0.438,2.772-0.67,5.582-1.213,8.332
					c-0.418,2.116-0.728,4.178-0.153,6.291c0.082,0.303,0.183,0.6,0.31,1.011c0.397-0.234,0.844-0.34,0.984-0.607
					c0.704-1.336,1.342-2.708,1.977-4.08c1.447-3.125,2.869-6.26,4.33-9.377c0.171-0.365,0.53-0.642,0.802-0.958
					c0.163,0.019,0.326,0.039,0.49,0.058c0.111,0.704,0.411,1.439,0.3,2.107c-0.457,2.763-1.162,5.488-1.544,8.26
					c-0.549,3.984-1.199,7.993-1.24,11.997c-0.036,3.508,0.24,7.168,1.27,10.485c0.704,2.265,0.976,5.162,3.546,6.61
					c0.26,0.146,0.341,0.609,0.528,0.968c1.02-0.337,1.31-0.819,0.993-2.002c-0.333-1.243-0.235-2.625-0.186-3.941
					c0.1-2.622,0.048-5.285,0.513-7.848c0.629-3.477,1.689-6.875,2.556-10.309c0.322-1.273,0.492-2.604,0.974-3.81
					c0.329-0.821,1.081-1.473,1.893-2.049c0.318,1.991,0.298,3.787-0.643,5.48c-0.293,0.528-0.522,1.17-0.532,1.764
					c-0.054,3.631-0.257,7.281,0.034,10.889c0.192,2.381,1.126,4.703,1.734,7.051c0.052,0.203,0.23,0.394,0.224,0.586
					c-0.09,2.739,1.985,4.383,3.225,6.453c1.343,2.241,2.586,4.544,3.979,6.752c0.438,0.693,1.223,1.169,1.848,1.743
					c0.313-0.744,0.865-1.476,0.898-2.232c0.129-2.912-0.086-5.847,0.155-8.747c0.435-5.225,1.052-10.437,1.701-15.642
					c0.328-2.62,0.769-5.24,1.394-7.803c0.447-1.83,1.244-3.583,1.961-5.339c0.917-2.25,1.961-4.448,2.852-6.709
					c0.531-1.348,1.449-1.075,2.345-0.686c1.007,0.437,0.725,1.248,0.4,2.04c-0.887,2.164-1.878,4.293-1.645,6.747
					c0.44,4.626,0.833,9.258,1.241,13.888c0.09,1.032,0.157,2.067,0.607,3.182c0.198-0.326,0.464-0.629,0.583-0.982
					c1.921-5.713,3.773-11.45,5.751-17.143c0.958-2.756,2.955-4.84,5.045-7.242c0.057,1.837-0.328,2.935-1.453,4.076
					c-1.133,1.149-1.925,2.803-2.428,4.375c-1.608,5.027-3.183,10.078-4.438,15.201c-0.831,3.39-1.225,6.907-1.55,10.392
					c-0.169,1.802,0.235,3.659,0.383,5.523c-2.266,0.329-2.127-1.573-2.213-2.501c-0.599-6.519-3.016-12.76-2.915-19.379
					c0.019-1.215-0.118-2.442-0.299-3.646c-0.057-0.381-0.491-0.706-0.752-1.057c-0.292,0.24-0.708,0.422-0.854,0.731
					c-0.491,1.041-1.123,2.094-1.276,3.202c-0.642,4.631-1.125,9.284-1.676,13.929c-0.294,2.476-0.787,4.942-0.873,7.423
					c-0.128,3.703-0.84,7.438,0.237,11.119c0.015,0.051,0.024,0.104,0.04,0.155c0.804,2.445,0.804,2.445-1.215,3.887
					c-1.014,0.725-1.231,3.603-0.155,5.034c1.273,1.692,2.734,3.249,4.183,4.802c0.784,0.84,1.735,1.521,2.568,2.318
					c3.893,3.729,8.248,6.838,12.876,9.567c4.444,2.62,9.373,3.998,14.291,5.386c3.608,1.018,7.158,2.52,10.833,2.946
					c3.298,0.384,6.739-0.343,10.105-0.696c2.046-0.214,4.072-0.637,6.104-0.985c1.667-0.286,3.375-0.448,4.98-0.94
					c2.505-0.77,4.932-0.362,7.425-0.046c2.879,0.365,5.778,0.23,8.643,1.135c2.343,0.738,4.951,0.595,7.371,1.146
					c4.259,0.973,8.5,1.405,12.805,0.478c3.301-0.711,6.586-1.496,9.891-2.193c4.204-0.887,8.436-1.651,12.627-2.595
					c2.581-0.58,5.114-1.351,7.804-1.177c1.574,0.103,3.147,0.215,4.723,0.27c3.341,0.117,6.684,0.253,10.026,0.28
					c2.975,0.024,5.95-0.077,8.925-0.146c0.53-0.012,1.118,0.002,1.576-0.215c1.2-0.568,2.093,0.032,3.217,0.331
					c1.633,0.435,3.536,0.135,5.27-0.163c1.731-0.298,3.386-1.017,5.093-1.483c3.924-1.073,7.42-2.938,10.613-5.449
					c2.146-1.687,4.507-3.115,6.552-4.91c2.534-2.223,5.133-4.48,7.161-7.139c1.896-2.489,3.095-5.512,4.561-8.32
					c0.136-0.261-0.021-0.673-0.063-1.379c-3.405,2.983-6.57,5.754-9.735,8.526c-0.173-0.046-0.346-0.092-0.518-0.138
					c0.061-0.457-0.05-1.13,0.21-1.337c2.18-1.731,2.555-4.25,3.161-6.711c0.526-2.137,1.441-4.192,1.821-6.348
					c0.969-5.506,2.347-10.972,1.867-16.659c-0.228-2.714-0.208-5.45-0.302-8.203c-1.129-0.198-1.583-0.104-1.864,0.923
					c-1.24,4.541-2.553,9.064-3.958,13.557c-0.613,1.957-1.198,4.046-2.355,5.679c-1.796,2.534-4.054,4.746-6.153,7.061
					c-0.695,0.767-1.502,1.432-2.258,2.145c-0.192-0.064-0.385-0.129-0.577-0.193c0.479-2.894,0.959-5.787,1.472-8.887
					c-2,0-3.063,1.176-4.057,2.091c-1.79,1.646-3.992,2.128-6.164,2.779c-0.201,0.06-0.475-0.118-0.891-0.236
					c3.216-4.649,4.957-9.713,5.409-15.25c1.638,3.554,0.508,6.888-0.426,10.23c0.136,0.109,0.271,0.218,0.407,0.327
					c0.646-0.35,1.503-0.541,1.899-1.076c1.662-2.242,3.669-4.403,4.635-6.942c1.167-3.068,1.437-6.484,2.031-9.761
					c0.16-0.883,0.053-1.811,0.138-2.712c0.028-0.295,0.279-0.569,0.453-0.9c2.398,8.149,0.17,15.928-1.254,23.749
					c0.118,0.068,0.236,0.137,0.355,0.206c0.411-0.352,0.975-0.623,1.209-1.068c2.624-4.971,5.658-9.752,7.023-15.305
					c1.093-4.449,2.523-8.846,2.3-13.504c-0.06-1.241-0.537-2.458-0.701-3.702c-0.058-0.437,0.248-0.921,0.388-1.384
					c0.202-0.005,0.404-0.011,0.605-0.016c0.973,2.365,2.052,4.693,2.884,7.107c0.672,1.95,1.164,3.981,1.528,6.014
					c0.809,4.517,0.147,9.019-0.373,13.511c-0.293,2.53-0.584,5.064-0.996,7.576c-0.454,2.771-1.047,5.52-1.573,8.278
					c-0.029,0.152-0.004,0.313-0.004,0.834c0.587-0.235,1.21-0.286,1.471-0.62c3.552-4.526,7.411-8.865,9.673-14.25
					c1.694-4.034,3.684-8.026,4.692-12.241c0.978-4.089,0.804-8.445,1.266-12.669c0.309-2.828,0.844-5.632,1.278-8.447
					c0.147-0.058,0.293-0.116,0.439-0.174c0.31,0.496,0.694,0.96,0.916,1.493c0.89,2.145,1.784,4.291,2.569,6.474
					c0.525,1.46,0.845,2.993,1.31,4.477c0.184,0.584,0.512,1.124,0.815,1.771c1.545-1.356,1.422-3.082,1.513-4.663
					c0.159-2.794,0.318-5.609,0.154-8.396c-0.217-3.673-0.71-7.333-1.158-10.99c-0.18-1.467-0.437-2.946-0.865-4.356
					c-0.81-2.665-1.625-5.345-2.703-7.908c-1.405-3.342-2.938-6.647-4.652-9.841c-2.178-4.056-4.393-8.119-6.967-11.925
					c-2.181-3.225-4.776-6.197-7.408-9.081c-2.489-2.728-5.246-5.215-7.931-7.759c-0.527-0.5-1.244-0.818-1.907-1.153
					c-2.273-1.146-2.5-1.447-1.772-4.257c0.738-2.844,1.556-5.67,2.184-8.539c0.619-2.83,1.114-5.692,1.524-8.56
					c0.203-1.416,0.181-2.881,0.107-4.316c-0.187-3.646-0.347-7.302-0.754-10.927c-0.165-1.463-0.917-2.867-1.45-4.28
					c-1.207-3.199-2.259-6.473-3.713-9.557c-2.214-4.698-5.741-8.463-9.262-12.228c-2.04-2.182-3.701-4.716-5.7-6.941
					c-1.616-1.799-3.424-3.441-5.256-5.026c-1.702-1.473-3.494-2.856-5.344-4.139c-2.621-1.817-5.118-3.8-8.392-4.554
					c-1.976-0.455-3.754-1.709-5.694-2.4c-2.328-0.831-4.697-1.632-7.115-2.108c-3.883-0.764-7.822-1.25-11.737-1.854
					c-0.158-0.024-0.312-0.096-0.469-0.103c-1.682-0.071-3.449,0.014-3.685-2.492c1.473-2.668,3.947-4.791,6.592-6.689
					c0.94-0.675,2.409-0.705,2.033-2.87c-2.541,0.495-5.072,0.98-7.6,1.485c-0.758,0.151-1.503,0.365-2.256,0.539
					c-1.818,0.417-3.652,0.804-4.752,3.086c-0.357-0.794-0.817-1.341-0.799-1.871c0.049-1.368,0.031-2.845,0.541-4.068
					c1.211-2.901,2.552-5.776,4.149-8.48c1.289-2.183,3.035-4.093,4.561-6.138c0.367-0.491,0.667-1.032,1.116-1.736
					c-0.571-0.04-0.903,0.009-1.168-0.102c-0.305-0.127-0.798-0.435-0.773-0.596c0.057-0.373,0.298-0.884,0.606-1.024
					c2.308-1.04,4.64-2.028,6.989-2.973c0.651-0.262,1.385-0.321,2.081-0.472c0.102,0.16,0.205,0.319,0.307,0.479
					c-1.175,1.144-2.326,2.313-3.53,3.425c-1.726,1.596-3.563,3.077-5.223,4.738c-3.646,3.646-6.124,7.977-7.235,13.044
					c-0.067,0.306-0.06,0.627-0.077,0.817c3.601-0.683,7.199-1.275,10.754-2.062c3.76-0.832,7.372-0.038,11.02,0.541
					c0.071,0.149,0.143,0.298,0.214,0.447c-0.777,0.547-1.517,1.161-2.342,1.621c-0.738,0.41-1.545,0.781-2.366,0.94
					c-3.792,0.738-6.013,3.526-8.315,6.225c-0.203,0.238-0.395,0.487-0.625,0.772c0.95,1.676,2.74,1.326,4.2,1.685
					c3.631,0.893,7.284,1.697,10.927,2.54c0.31,0.072,0.623,0.275,0.917,0.245c2.709-0.274,4.792,1.235,7.026,2.363
					c0.974,0.492,2.11,0.655,3.108,1.108c4.086,1.855,8.176,3.718,11.334,7.072c0.209,0.223,0.521,0.347,0.778,0.527
					c1.974,1.384,3.887,2.867,5.933,4.131c2.768,1.71,5.095,3.917,6.936,6.509c2.052,2.888,4.834,5.29,5.727,9.02
					c0.44,1.84,1.847,3.43,2.672,5.2c1.283,2.752,2.529,5.528,3.631,8.357c1.038,2.664,1.88,5.404,2.779,8.121
					c0.163,0.491,0.238,1.028,0.253,1.547c0.081,2.755,0.176,5.511,0.178,8.268c0.001,2.446,0.17,4.941-0.236,7.33
					c-0.791,4.64-1.626,9.287-3.417,13.707c-0.953,2.354-0.522,3,1.612,4.343c0.885,0.557,1.709,1.247,2.459,1.98
					c2.135,2.087,4.3,4.153,6.299,6.367c2.275,2.522,4.441,5.151,6.55,7.816c2.593,3.275,5.204,6.55,7.556,9.996
					c1.17,1.715,2.315,3.526,2.215,5.922c-0.057,1.352,0.653,2.914,1.451,4.086c1.6,2.35,2.09,5.075,2.946,7.658
					c1.015,3.065,1.802,6.226,2.424,9.396c0.784,3.992,1.401,8.023,1.896,12.062c0.285,2.322,0.43,4.718,0.186,7.032
					c-0.216,2.049-1.002,4.049-1.635,6.04c-1.009,3.176-2.022,6.355-3.184,9.478c-0.561,1.507-1.438,2.901-2.227,4.315
					c-0.171,0.308-0.579,0.482-1.118,0.627c1.566-6.791,1.535-13.516,0.198-20.238c-0.053-0.264-0.545-0.44-1.028-0.804
					c-0.179,2.239-0.268,4.282-0.527,6.302c-0.267,2.082-0.56,4.179-1.095,6.203c-0.726,2.747-1.583,5.472-2.589,8.129
					c-1.007,2.659-2.146,5.286-3.469,7.799c-0.658,1.25-0.748,1.906,0.685,2.359c0.188,0.059,0.345,0.222,0.719,0.472
					c-0.491,0.601-0.854,1.504-1.399,1.633c-2.394,0.566-2.762,2.654-3.55,4.402c-0.537,1.193-0.817,2.5-1.294,3.723
					c-0.319,0.818-0.772,1.587-1.185,2.367c-0.71,1.343-1.598,2.617-2.126,4.027c-1.672,4.457-5.701,6.702-8.947,9.646
					c-2.385,2.163-5.133,3.919-7.638,5.958c-2.479,2.018-5.384,3.122-8.327,4.166c-3.07,1.089-6.142,2.178-9.249,3.155
					c-3.664,1.151-7.412,0.685-11.146,0.391c-2.282-0.178-4.679-0.767-6.833-0.295c-4.725,1.034-9.129-0.784-13.699-0.932
					c-1.897-0.061-2.346-0.042-2.582,1.846c-0.25,1.997-0.755,3.964,0.406,5.983c0.549,0.954,0.46,2.392,0.355,3.583
					c-0.233,2.648-0.92,5.279-0.933,7.92c-0.015,2.767,0.676,5.53,0.819,8.308c0.246,4.771,3.197,6.873,7.378,7.798
					c3.87,0.855,7.75,1.703,11.664,2.313c1.447,0.226,2.999-0.265,4.507-0.377c1.646-0.121,3.298-0.266,4.945-0.253
					c3.716,0.031,7.419,0.072,11.003,1.386c2.843,1.042,3.569,2.559,2.245,5.278c-0.431,0.884-0.109,1.528,0.704,2.158
					c1.354,1.05,2.667,2.19,3.818,3.456c1.864,2.05-0.378,4.585-2.482,4.867c-1.662,0.224-3.334,0.408-4.966,0.77
					c-0.329,0.073-0.732,0.879-0.706,1.322c0.249,4.266-0.572,4.706-4.441,5.302c-1.398,0.216-2.938-0.064-4.343-0.406
					c-2.499-0.608-4.762-1.737-7.012-3.066c-2.32-1.371-5.116-1.908-7.633-2.977c-2.771-1.177-5.417-2.649-8.201-3.789
					c-2.09-0.855-4.31-1.394-6.475-2.063c-1.265-0.392-2.532-0.775-3.804-1.145c-3.177-0.922-6.135,0.751-9.248,0.859
					c-1.601,0.057-3.201,1.158-4.732,1.926c-3.489,1.746-6.908,0.983-9.76-1.007c-3.078-2.146-2.626-6.138,0.16-8.094
					c1.674-1.176,3.779-1.817,5.771-2.446c3.797-1.197,6.105-3.665,7.065-7.494c1.821-7.26,1.784-14.591,0.955-21.969
					c-0.132-1.177,0.066-2.394,0.14-3.592c0.031-0.525,0.22-1.053,0.184-1.568c-0.13-1.821-0.433-1.867-2.181-1.381
					c-3.449,0.959-6.935,1.799-10.433,2.568c-6.231,1.372-12.325,0.205-18.398-1.153c-0.468-0.104-0.951-0.149-1.429-0.195
					c-3.069-0.29-6.14-0.563-9.209-0.861c-2.774-0.271-3.337,0.182-3.477,3.27c-0.164,3.611-0.288,7.229-0.263,10.843
					c0.018,2.654,0.323,5.306,0.463,7.959c0.123,2.323-0.241,4.776,0.398,6.939c0.75,2.543,1.294,5.502,4.172,6.859
					c0.554,0.261,1.146,0.567,1.736,0.604c2.552,0.151,5.108,0.229,7.664,0.298c2.368,0.064,5.222,1.959,5.951,4.001
					c0.667,1.867-0.1,5.023-1.928,6.185c-2.406,1.526-5.138,2.353-8.048,1.682c-2.201-0.507-4.379-1.136-6.533-1.817
					c-1.552-0.492-2.983-0.067-4.302,0.537c-1.707,0.781-3.281,1.851-4.915,2.794c-1.641,0.947-3.288,1.884-4.924,2.839
					c-0.593,0.346-1.153,0.746-1.747,1.091c-3.119,1.816-5.114,4.786-7.372,7.434c-1.438,1.684-3.018,2.952-5.062,3.504
					c-2.655,0.718-5.376,2.28-8.124,0.578C96.829,370.934,96.114,369.652,94.848,368.216z M213.48,346.679
					c-0.005-0.155-0.01-0.312-0.015-0.467c1.191-0.189,2.386-0.55,3.573-0.527c1.519,0.029,3.026,0.463,4.549,0.55
					c2.154,0.123,4.33,0.226,6.471,0.039c0.699-0.062,1.443-0.969,1.894-1.666c0.135-0.209-0.554-1.136-1.035-1.523
					c-1.903-1.538-4.239-1.96-6.571-2.043c-3.289-0.117-6.585,0.048-9.878,0.034c-5.32-0.023-10.654-0.105-15.825-1.511
					c-2.622-0.712-5.146-1.791-7.695-2.753c-0.293-0.11-0.596-0.504-0.675-0.821c-0.724-2.88-1.45-5.761-2.063-8.667
					c-0.228-1.08,0.061-2.29-0.258-3.327c-1.639-5.325-0.781-10.762-0.828-16.152c-0.015-1.698,0.314-3.399,0.486-5.101
					c-0.477-0.072-0.646-0.15-0.78-0.112c-2.012,0.589-4.04,1.135-6.011,1.84c-0.418,0.149-0.87,0.879-0.89,1.359
					c-0.088,2.112-0.044,4.231-0.012,6.348c0.077,4.966,0.178,9.93,0.262,14.895c0.003,0.21-0.04,0.423-0.086,0.63
					c-0.788,3.513-1.397,7.082-2.461,10.51c-0.44,1.418-1.626,2.926-2.896,3.679c-1.496,0.887-3.519,0.828-5.186,1.496
					c-1.555,0.624-3.304,1.375-4.291,2.61c-0.785,0.982-0.548,2.78-0.807,4.491c1.76,0.202,3.19,0.622,4.552,0.459
					c1.902-0.229,3.748-0.917,5.628-1.362c0.977-0.231,1.972-0.471,2.968-0.523c3.227-0.172,6.457-0.253,9.685-0.384
					c1.82-0.074,3.603-0.147,5.13,1.184c0.583,0.508,1.362,0.83,2.098,1.119c3.384,1.326,6.775,2.638,10.183,3.901
					c3.433,1.272,6.89,2.477,10.331,3.726c0.271,0.099,0.533,0.279,0.743,0.479c0.452,0.434,0.784,1.118,1.312,1.323
					c1.822,0.712,3.67,1.477,5.58,1.807c1.601,0.275,3.262-0.074,4.596-1.307c0.787-0.729,0.737-1.383,0.047-2.026
					c-0.695-0.649-1.461-1.228-2.229-1.792c-3.318-2.441-7.092-3.787-11.07-4.711c-1.572-0.366-3.07-1.05-4.877-1.686
					c0.511-0.312,0.659-0.479,0.77-0.458c2.815,0.548,5.672,0.954,8.427,1.728c2.651,0.744,5.247,1.754,7.774,2.859
					c3.112,1.359,6.143,1.481,9.205,0.009c0.29-0.14,0.59-0.479,0.676-0.784c0.338-1.195-0.998-3.728-2.223-4.075
					c-1.571-0.446-3.172-0.824-4.785-1.069c-2.559-0.389-5.148-0.574-7.705-0.979C217.323,347.617,215.409,347.102,213.48,346.679z
					 M106.525,356.556c0.194,0.203,0.389,0.406,0.583,0.609c-0.421,0.655-0.754,1.397-1.287,1.945c-0.652,0.672-1.556,1.1-2.201,1.775
					c-1.814,1.901-3.599,3.836-5.3,5.838c-0.955,1.123-0.383,2.523,1.109,2.623c0.933,0.063,1.96-0.234,2.835-0.621
					c0.997-0.441,1.84-1.036,2.991-0.343c0.327,0.198,1.32,0.013,1.368-0.168c0.253-0.943,0.912-1.078,1.695-1.348
					c0.607-0.209,1.091-0.861,1.556-1.383c1.193-1.339,2.137-3.002,3.552-4.021c3.972-2.859,8.068-5.56,12.235-8.13
					c3.417-2.107,7.128-3.164,11.199-1.988c2.038,0.588,4.095,1.12,6.164,1.589c2.207,0.5,3.937-0.615,5.447-1.985
					c1.208-1.095,0.752-3.256-0.482-4.347c-1.752-1.548-3.884-1.249-5.906-1.548c-2.686-0.396-5.414-0.621-8.044-1.25
					c-1.687-0.403-2.824-1.912-3.394-3.499c-0.638-1.777-1.12-3.68-1.25-5.556c-0.367-5.301-0.653-10.615-0.707-15.927
					c-0.031-3.129,0.473-6.262,0.677-9.396c0.222-3.409-0.277-3.906-3.622-3.828c-0.746,0.018-1.497-0.02-2.235,0.063
					c-1.522,0.172-2.105,0.971-2.067,2.464c0.079,3.032,0.18,6.067,0.107,9.098c-0.085,3.561-0.386,7.114-0.519,10.674
					c-0.107,2.867,0.073,5.756-0.212,8.601c-0.199,1.982-0.411,4.235-3.14,4.768c-0.846,0.166-1.607,0.765-2.41,1.161
					c-2.216,1.098-4.355,2.411-6.669,3.231c-2.516,0.892-5.185,1.375-7.808,1.938c-1.112,0.239-2.331,0.051-3.406,0.374
					c-1.721,0.519-3.385,1.249-5.03,1.986c-2.169,0.971-4.2,2.135-4.534,4.838c-0.073,0.588-0.263,1.577-0.028,1.706
					c0.608,0.334,1.495,0.537,2.142,0.35c1.599-0.464,3.187-1.055,4.67-1.812c3.03-1.544,5.995-3.216,8.971-4.863
					c1.08-0.598,2.122-0.649,3.665,0.019c-3.432,2.163-6.537,4.151-9.674,6.088c-2.144,1.322-4.269,2.701-6.521,3.813
					c-1.813,0.896-3.254,2.098-4.241,3.799c-1.116,1.924-0.059,3.736,2.107,3.432c1.806-0.254,3.771-0.668,5.258-1.637
					c3.217-2.099,6.166-4.607,9.239-6.929C104.422,357.994,105.484,357.289,106.525,356.556z"/>
				<path fill-rule="evenodd" clip-rule="evenodd" fill="#FFFFFF" d="M205.424,128.749c-0.203,0.412-0.407,0.825-0.61,1.237
					c-1.142,0.827-2.45,1.498-3.392,2.51c-2.328,2.501-5.463,3.423-8.496,4.359c-2.322,0.717-4.724,1.072-6.687,2.656
					c-1.559,1.258-3.183,1.841-5.271,1.146c-1.684-0.562-3.558-0.532-5.282-1.006c-2.278-0.626-4.807-0.597-6.574-2.693
					c-0.738-0.876-2.003-1.301-3-1.973c-0.286-0.192-0.497-0.514-0.7-0.806c-0.607-0.873-1.068-1.894-1.821-2.607
					c-0.809-0.767-0.724-1.581-0.626-2.465c0.212-1.933,0.427-3.866,0.695-5.792c0.714-5.15-0.346-9.915-2.994-14.368
					c-0.187-0.314-0.146-0.9,0.014-1.261c0.666-1.5,1.803-2.897,2.064-4.45c0.712-4.246,4.391-5.535,7.145-7.766
					c0.077-0.063,0.201-0.068,0.304-0.097c2.146-0.602,4.291-1.21,6.441-1.796c0.403-0.11,0.835-0.191,1.249-0.172
					c2.148,0.1,4.304,0.143,6.438,0.378c3.864,0.427,7.441,1.719,10.317,4.394c1.625,1.512,2.97,3.331,4.415,5.033
					c2.897,3.412,5.783,6.709,6.611,11.465c0.523,3.003,0.341,5.931,0.397,8.886C206.092,125.287,205.652,127.02,205.424,128.749z
					 M184.333,118.429c-0.134-0.949-0.299-1.894-0.397-2.846c-0.404-3.908-4.269-6.638-8.202-5.781
					c-0.416,0.091-0.835,0.187-1.257,0.227c-3.869,0.367-5.88,2.92-7.26,6.188c-0.851,2.016-0.944,4.06-0.521,6.248
					c0.608,3.143,2.565,5.567,5.699,6.092C178.564,129.591,184.558,124.726,184.333,118.429z"/>
				<path fill-rule="evenodd" clip-rule="evenodd" d="M205.424,128.749c0.228-1.729,0.667-3.462,0.636-5.187
					c-0.056-2.956,0.126-5.883-0.397-8.886c-0.828-4.756-3.714-8.053-6.611-11.465c-1.445-1.702-2.789-3.521-4.415-5.033
					c-2.876-2.675-6.453-3.967-10.317-4.394c-2.134-0.236-4.291-0.279-6.438-0.378c-0.414-0.019-0.846,0.062-1.249,0.172
					c-2.151,0.585-4.295,1.194-6.441,1.796c-0.103,0.029-0.227,0.034-0.304,0.097c-2.754,2.231-6.432,3.521-7.145,7.766
					c-0.261,1.553-1.398,2.95-2.064,4.45c-0.16,0.36-0.201,0.947-0.014,1.261c2.648,4.453,3.708,9.217,2.994,14.368
					c-0.268,1.926-0.482,3.859-0.695,5.792c-0.098,0.884-0.183,1.698,0.626,2.465c0.753,0.713,1.214,1.734,1.821,2.607
					c0.203,0.292,0.414,0.614,0.7,0.806c0.997,0.672,2.262,1.097,3,1.973c1.767,2.097,4.296,2.067,6.574,2.693
					c1.724,0.474,3.598,0.444,5.282,1.006c2.088,0.695,3.713,0.112,5.271-1.146c1.963-1.583,4.365-1.939,6.687-2.656
					c3.032-0.936,6.168-1.858,8.496-4.359c0.942-1.013,2.25-1.684,3.392-2.51c-0.744,2.677-2.967,4.134-4.831,5.902
					c-2.477,2.35-5.956,2.021-8.803,3.378c-1.039,0.495-2.198,0.751-3.203,1.298c-0.427,0.232-0.93,1.04-0.813,1.396
					c0.206,0.631,0.785,1.208,1.335,1.647c1.687,1.352,3.448,2.61,5.153,3.939c1.013,0.789,0.965,1.836,0.499,2.89
					c-1.212,2.729-3.255,4.578-6.114,5.42c-1.519,0.447-3.085,0.862-4.653,0.982c-3.876,0.294-6.864,2.394-9.852,4.538
					c-0.245,0.176-0.45,0.478-0.555,0.766c-0.609,1.668-1.353,3.312-1.731,5.034c-0.608,2.77-2.146,4.313-5.029,4.241
					c-1.16-0.029-2.486-0.372-3.425-1.021c-2.998-2.071-5.817-4.396-8.775-6.526c-0.924-0.665-2.042-1.104-3.124-1.501
					c-4.016-1.476-8.115-2.747-12.067-4.374c-3.306-1.361-6.725-2.707-8.821-5.939c-1.063-1.639-0.722-5.147,0.731-6.389
					c2.159-1.844,4.381-3.615,6.699-5.519c-0.34-0.231-0.824-0.598-1.343-0.906c-2.027-1.201-4.27-2.141-6.042-3.639
					c-1.861-1.573-3.485-3.534-4.833-5.577c-1.91-2.893-3.407-6.038-2.962-9.702c0.317-2.612,1.017-5.04,2.733-7.168
					c1.883-2.335,3.511-4.873,5.329-7.264c1.577-2.075,3.805-3.256,6.248-3.962c4.75-1.371,9.608-1.28,14.409-0.477
					c1.465,0.245,2.976,0.929,4.118,2.39c0.926,1.184,2.668,1.729,3.841,2.433c1.067-2.322,1.898-4.544,3.061-6.575
					c2.058-3.591,5.328-5.648,9.297-6.636c1.717-0.427,3.432-0.894,5.173-1.188c0.916-0.155,1.889,0.008,2.835,0.058
					c0.525,0.027,1.104,0.294,1.561,0.148c2.291-0.733,4.183,0.456,6.213,1.099c2.112,0.669,4.279,1.165,6.414,1.769
					c0.313,0.089,0.722,0.291,0.839,0.552c1.034,2.296,3.183,3.461,4.935,5.042c0.849,0.766,1.449,1.809,2.151,2.735
					c0.898,1.184,1.706,2.446,2.693,3.548c1.408,1.572,2.287,3.331,2.624,5.417c0.166,1.025,0.641,1.997,0.849,3.02
					c0.779,3.828,0.354,7.648-0.369,11.418C207.062,127.459,206.042,128.065,205.424,128.749z M132.404,148.996
					c0.029,2.179,0.385,3.319,1.915,3.956c2.061,0.858,3.553,2.659,5.878,3.111c1.956,0.38,3.776,1.424,5.727,1.87
					c3.434,0.787,6.644,2.067,9.499,4.077c2.075,1.46,3.875,3.305,5.905,4.834c1.084,0.817,2.339,1.56,3.63,1.892
					c0.734,0.188,2.046-0.268,2.492-0.877c1.211-1.652,2.073-3.557,3.123-5.333c1.39-2.351,3.289-4.209,5.896-5.083
					c3.164-1.061,6.446-1.776,9.585-2.896c1.853-0.661,3.598-1.709,5.261-2.786c1.113-0.721,1.021-2.65,0.027-3.527
					c-1.656-1.46-3.416-2.7-5.674-3.109c-1.021-0.185-1.996-0.63-2.985-0.979c-1.175-0.416-2.326-0.908-3.519-1.264
					c-0.848-0.253-1.75-0.315-2.621-0.496c-1.934-0.403-3.844-0.994-5.797-1.205c-3.22-0.347-6.464-0.599-9.7-0.621
					c-3.36-0.024-6.747-0.382-10.077,0.699c-1.136,0.368-2.527-0.143-3.767,0.016c-1.761,0.226-3.476,0.881-5.236,1.024
					c-2.236,0.181-4.423,0.41-6.29,1.732C133.988,145.228,132.219,146.447,132.404,148.996z M162.452,122.625
					c-0.118-4.079-0.937-7.327-2.39-10.593c-1.805-4.055-4.945-6.31-8.615-8.183c-0.601-0.307-1.281-0.465-1.936-0.656
					c-0.82-0.239-1.658-0.649-2.477-0.619c-2.165,0.079-4.32,0.401-6.485,0.54c-3.223,0.207-6.013,1.614-8.217,3.733
					c-2.056,1.977-3.614,4.49-5.278,6.847c-1.086,1.538-2.563,3.138-2.798,4.856c-0.323,2.359-1.083,4.967,0.481,7.316
					c0.746,1.12,1.49,2.274,2.006,3.508c1.343,3.213,4.278,4.648,7.017,6.126c2,1.079,4.356,1.552,6.598,2.118
					c2.176,0.549,4.209,1.707,6.654,1.2c1.85-0.383,3.817-0.173,5.699-0.451c1.687-0.249,3.739,0.299,4.795-1.749
					c0.265-0.513,0.519-1.035,0.818-1.527C160.77,131.083,162.415,126.825,162.452,122.625z M159.403,137.563
					c1.396,1.096,2.89,1.014,4.358,0.721c0.352-0.07,0.873-0.993,0.844-1.02c-0.782-0.733-1.543-1.605-2.495-1.989
					c-0.451-0.182-1.343,0.515-1.928,0.958C159.835,136.494,159.698,137.034,159.403,137.563z"/>
				<path fill-rule="evenodd" clip-rule="evenodd" fill="#f39c12" d="M213.48,346.679c1.929,0.423,3.843,0.938,5.79,1.246
					c2.556,0.405,5.146,0.591,7.705,0.979c1.612,0.245,3.213,0.623,4.785,1.069c1.225,0.348,2.561,2.88,2.223,4.075
					c-0.086,0.306-0.386,0.645-0.676,0.784c-3.063,1.473-6.093,1.351-9.205-0.009c-2.528-1.105-5.123-2.115-7.774-2.859
					c-2.754-0.773-5.611-1.18-8.427-1.728c-0.111-0.021-0.259,0.146-0.77,0.458c1.807,0.636,3.305,1.319,4.877,1.686
					c3.978,0.924,7.752,2.27,11.07,4.711c0.768,0.564,1.533,1.143,2.229,1.792c0.69,0.644,0.74,1.298-0.047,2.026
					c-1.333,1.232-2.995,1.582-4.596,1.307c-1.91-0.33-3.758-1.095-5.58-1.807c-0.528-0.205-0.86-0.89-1.312-1.323
					c-0.209-0.2-0.472-0.381-0.743-0.479c-3.441-1.249-6.898-2.453-10.331-3.726c-3.408-1.264-6.798-2.575-10.183-3.901
					c-0.736-0.289-1.515-0.611-2.098-1.119c-1.527-1.331-3.31-1.258-5.13-1.184c-3.228,0.131-6.458,0.212-9.685,0.384
					c-0.996,0.053-1.991,0.292-2.968,0.523c-1.881,0.445-3.726,1.133-5.628,1.362c-1.361,0.163-2.792-0.257-4.552-0.459
					c0.259-1.711,0.022-3.509,0.807-4.491c0.987-1.235,2.736-1.986,4.291-2.61c1.667-0.668,3.69-0.609,5.186-1.496
					c1.27-0.753,2.456-2.261,2.896-3.679c1.064-3.428,1.673-6.997,2.461-10.51c0.046-0.207,0.089-0.42,0.086-0.63
					c-0.084-4.965-0.185-9.929-0.262-14.895c-0.033-2.116-0.077-4.235,0.012-6.348c0.021-0.48,0.472-1.21,0.89-1.359
					c1.971-0.705,3.999-1.251,6.011-1.84c0.134-0.038,0.304,0.04,0.78,0.112c-0.171,1.701-0.501,3.402-0.486,5.101
					c0.046,5.391-0.811,10.827,0.828,16.152c0.318,1.037,0.03,2.247,0.258,3.327c0.613,2.906,1.339,5.787,2.063,8.667
					c0.08,0.317,0.382,0.711,0.675,0.821c2.549,0.962,5.073,2.041,7.695,2.753c5.171,1.405,10.505,1.487,15.825,1.511
					c3.293,0.014,6.59-0.151,9.878-0.034c2.332,0.083,4.668,0.505,6.571,2.043c0.481,0.388,1.169,1.314,1.035,1.523
					c-0.451,0.697-1.195,1.604-1.894,1.666c-2.141,0.187-4.316,0.084-6.471-0.039c-1.522-0.087-3.03-0.521-4.549-0.55
					c-1.187-0.022-2.382,0.338-3.573,0.527C213.471,346.367,213.476,346.523,213.48,346.679z"/>
				<path fill-rule="evenodd" clip-rule="evenodd" fill="#f39c12" d="M106.525,356.556c-1.041,0.733-2.103,1.438-3.119,2.205
					c-3.073,2.321-6.021,4.83-9.239,6.929c-1.486,0.969-3.452,1.383-5.258,1.637c-2.166,0.305-3.223-1.508-2.107-3.432
					c0.986-1.701,2.428-2.903,4.241-3.799c2.252-1.112,4.378-2.491,6.521-3.813c3.137-1.937,6.242-3.925,9.674-6.088
					c-1.543-0.668-2.585-0.616-3.665-0.019c-2.976,1.647-5.941,3.319-8.971,4.863c-1.483,0.757-3.071,1.348-4.67,1.812
					c-0.647,0.188-1.534-0.016-2.142-0.35c-0.235-0.129-0.045-1.118,0.028-1.706c0.334-2.703,2.364-3.867,4.534-4.838
					c1.645-0.737,3.31-1.468,5.03-1.986c1.075-0.323,2.294-0.135,3.406-0.374c2.623-0.563,5.292-1.047,7.808-1.938
					c2.314-0.82,4.454-2.134,6.669-3.231c0.802-0.396,1.563-0.995,2.41-1.161c2.729-0.532,2.94-2.785,3.14-4.768
					c0.286-2.845,0.105-5.733,0.212-8.601c0.133-3.56,0.434-7.113,0.519-10.674c0.073-3.03-0.028-6.065-0.107-9.098
					c-0.039-1.493,0.545-2.292,2.067-2.464c0.738-0.083,1.489-0.046,2.235-0.063c3.345-0.078,3.844,0.419,3.622,3.828
					c-0.204,3.134-0.708,6.267-0.677,9.396c0.054,5.312,0.34,10.626,0.707,15.927c0.13,1.876,0.612,3.778,1.25,5.556
					c0.57,1.587,1.708,3.096,3.394,3.499c2.63,0.629,5.358,0.854,8.044,1.25c2.021,0.299,4.153,0,5.906,1.548
					c1.234,1.091,1.69,3.252,0.482,4.347c-1.51,1.37-3.24,2.485-5.447,1.985c-2.068-0.469-4.125-1.001-6.164-1.589
					c-4.071-1.176-7.782-0.119-11.199,1.988c-4.167,2.57-8.263,5.271-12.235,8.13c-1.415,1.02-2.359,2.683-3.552,4.021
					c-0.465,0.521-0.949,1.174-1.556,1.383c-0.783,0.27-1.441,0.404-1.695,1.348c-0.048,0.181-1.041,0.366-1.368,0.168
					c-1.151-0.693-1.994-0.099-2.991,0.343c-0.875,0.387-1.902,0.684-2.835,0.621c-1.492-0.1-2.063-1.5-1.109-2.623
					c1.702-2.002,3.486-3.937,5.3-5.838c0.645-0.676,1.549-1.104,2.201-1.775c0.533-0.548,0.866-1.29,1.287-1.945
					C106.914,356.962,106.719,356.759,106.525,356.556z"/>
				<path fill-rule="evenodd" fill="#0099CC" clip-rule="evenodd" d="M184.333,118.429c0.226,6.297-5.768,11.163-11.939,10.127
					c-3.133-0.525-5.091-2.949-5.699-6.092c-0.423-2.188-0.33-4.231,0.521-6.248c1.38-3.267,3.391-5.82,7.26-6.188
					c0.422-0.04,0.841-0.136,1.257-0.227c3.934-0.856,7.798,1.874,8.202,5.781C184.033,116.535,184.198,117.48,184.333,118.429z
					 M175.779,116.684c0.091-1.439-0.113-2.734-1.576-3.49c-1.494-0.771-2.706,0.067-3.552,0.983
					c-0.776,0.839-1.204,2.104-1.506,3.254c-0.452,1.726,1.117,3.347,2.875,3.157C173.795,120.396,175.64,118.477,175.779,116.684z"/>
				<path fill-rule="evenodd" clip-rule="evenodd" fill="#f39c12" d="M132.404,148.996c-0.185-2.548,1.583-3.768,3.272-4.965
					c1.867-1.323,4.054-1.552,6.29-1.732c1.76-0.143,3.475-0.798,5.236-1.024c1.24-0.159,2.631,0.352,3.767-0.016
					c3.331-1.081,6.717-0.723,10.077-0.699c3.236,0.022,6.48,0.274,9.7,0.621c1.953,0.211,3.863,0.802,5.797,1.205
					c0.871,0.181,1.773,0.243,2.621,0.496c1.192,0.356,2.343,0.849,3.519,1.264c0.989,0.349,1.964,0.794,2.985,0.979
					c2.258,0.409,4.019,1.649,5.674,3.109c0.994,0.876,1.086,2.806-0.027,3.527c-1.663,1.077-3.408,2.125-5.261,2.786
					c-3.14,1.12-6.421,1.835-9.585,2.896c-2.607,0.875-4.506,2.733-5.896,5.083c-1.05,1.775-1.911,3.68-3.123,5.333
					c-0.446,0.609-1.758,1.065-2.492,0.877c-1.292-0.332-2.546-1.075-3.63-1.892c-2.03-1.529-3.831-3.374-5.905-4.834
					c-2.855-2.009-6.065-3.29-9.499-4.077c-1.95-0.446-3.771-1.49-5.727-1.87c-2.325-0.452-3.817-2.253-5.878-3.111
					C132.789,152.315,132.433,151.174,132.404,148.996z M151.212,155.306c0.313,1.089,3.431,3.586,4.253,3.492
					c0.228-0.026,0.608-0.229,0.616-0.37c0.023-0.395,0.03-0.931-0.204-1.179C154.663,155.961,153.275,154.973,151.212,155.306z
					 M170.618,154.791c-1.305,0.994-2.61,1.989-4.083,3.11C168.599,158.415,170.266,157.262,170.618,154.791z"/>
				<path fill-rule="evenodd" clip-rule="evenodd" fill="#FFFFFF" d="M162.452,122.625c-0.037,4.2-1.683,8.457-4.128,12.466
					c-0.299,0.492-0.553,1.014-0.818,1.527c-1.057,2.048-3.108,1.5-4.795,1.749c-1.882,0.278-3.849,0.067-5.699,0.451
					c-2.445,0.507-4.478-0.651-6.654-1.2c-2.242-0.566-4.598-1.039-6.598-2.118c-2.738-1.478-5.673-2.913-7.017-6.126
					c-0.516-1.234-1.26-2.388-2.006-3.508c-1.563-2.349-0.804-4.957-0.481-7.316c0.235-1.718,1.712-3.318,2.798-4.856
					c1.664-2.357,3.222-4.871,5.278-6.847c2.204-2.119,4.994-3.526,8.217-3.733c2.165-0.139,4.32-0.461,6.485-0.54
					c0.818-0.03,1.657,0.38,2.477,0.619c0.654,0.191,1.334,0.349,1.936,0.656c3.67,1.873,6.811,4.128,8.615,8.183
					C161.515,115.298,162.334,118.547,162.452,122.625z M149.382,128.223c6.613-0.094,8.329-3.017,8.614-8.589
					c0.146-2.867-5.096-7.24-8.63-7.168c-3.016,0.062-6.992,3.816-6.812,9.367C142.66,125.119,145.026,128.537,149.382,128.223z"/>
				<path fill-rule="evenodd" clip-rule="evenodd" fill="#FFFFFF" d="M159.403,137.563c0.295-0.529,0.432-1.068,0.779-1.33
					c0.584-0.442,1.477-1.14,1.928-0.958c0.952,0.384,1.713,1.256,2.495,1.989c0.029,0.027-0.493,0.95-0.844,1.02
					C162.292,138.576,160.798,138.659,159.403,137.563z"/>
				<path fill-rule="evenodd" clip-rule="evenodd" fill="#FFFFFF" d="M175.779,116.684c-0.139,1.793-1.983,3.713-3.759,3.904
					c-1.758,0.19-3.327-1.431-2.875-3.157c0.302-1.15,0.73-2.415,1.506-3.254c0.847-0.917,2.059-1.754,3.552-0.983
					C175.666,113.949,175.87,115.245,175.779,116.684z"/>
				<path fill-rule="evenodd" clip-rule="evenodd" d="M151.212,155.306c2.063-0.333,3.45,0.655,4.666,1.943
					c0.233,0.248,0.227,0.784,0.204,1.179c-0.008,0.14-0.389,0.343-0.616,0.37C154.644,158.893,151.526,156.396,151.212,155.306z"/>
				<path fill-rule="evenodd" clip-rule="evenodd" d="M170.618,154.791c-0.352,2.471-2.019,3.624-4.083,3.11
					C168.008,156.78,169.313,155.785,170.618,154.791z"/>
				<path fill-rule="evenodd" fill="#0099CC" clip-rule="evenodd" d="M149.382,128.223c-4.355,0.314-6.722-3.104-6.828-6.391
					c-0.18-5.55,3.796-9.305,6.812-9.367c3.534-0.072,8.776,4.301,8.63,7.168C157.711,125.206,155.995,128.128,149.382,128.223z
					 M151.141,119.913c1.166,0.122,2.852-1.287,2.93-2.448c0.073-1.085-1.42-1.995-3.612-2.121c-1.007-0.058-1.363,0.6-1.427,1.52
					C148.931,118.305,149.936,119.788,151.141,119.913z"/>
				<path fill-rule="evenodd" clip-rule="evenodd" fill="#FFFFFF" d="M151.141,119.913c-1.205-0.125-2.21-1.608-2.109-3.049
					c0.064-0.92,0.42-1.578,1.427-1.52c2.192,0.126,3.685,1.036,3.612,2.121C153.993,118.626,152.306,120.035,151.141,119.913z"/>
			</g>
		</g>
		
	</svg>

	<svg id="upper-shell" viewBox="0 0 315 385" preserveAspectRatio="xMidYMin meet">
		<!-- path forming the upper shell -->
		<path id="the-upper-shell" fill="url(#gradient)" stroke="#000000" stroke-width="1.5003" d="M308.238,178.474C293.397,98.305,247.928,3.901,156.227,6.619
			C72.859,9.089,25.516,99.511,7.534,178.474l31.179-10.868l34.643,8.151l26.492-27.17l26.491,28.529l18.34-4.755l38.718,19.699
			l44.152-32.605l23.774,14.265l17.661-6.113L308.238,178.474z"/>
	</svg>
	<svg viewBox="0 0 315 385" preserveAspectRatio="xMidYMax meet">
		<!-- path forming the lower shell -->
		<path id="the-lower-shell" fill="url(#gradient)" stroke="#000000" stroke-width="1.5003" d="M308.238,178.474c4.221,100.532-60.61,139.929-151.332,141.288
			C73.878,321.005,0.674,279.685,7.535,178.474l31.178-10.868l34.643,8.151l26.492-27.17l26.491,28.529l18.34-4.755l36.001,19.699
			l46.87-32.605l23.774,14.265l17.661-6.113L308.238,178.474z"/>
		</svg>
</svg>